<?xml version="1.0" encoding="UTF-8"?>
<svg version="1.1" xmlns="http://www.w3.org/2000/svg" width="134" height="40">
<path d="M0 0 C2.31 0 4.62 0 7 0 C7 2.97 7 5.94 7 9 C7.886875 8.773125 8.77375 8.54625 9.6875 8.3125 C13.66636996 7.93713491 14.89774973 8.56850654 18 11 C20.99126184 13.88443106 21.69089107 16.85731641 22.06640625 20.97265625 C21.9594272 24.2386637 20.80227415 26.32766247 19 29 C15 32 15 32 0 32 C0 21.44 0 10.88 0 0 Z M9 14 C8.01 14.495 8.01 14.495 7 15 C7 18.3 7 21.6 7 25 C10.51480683 26.10029599 10.51480683 26.10029599 13.875 25 C15.62020832 21.89740743 14.69997967 19.3726293 14 16 C11.60931266 14.89363605 11.60931266 14.89363605 9 14 Z " fill="#2C2F91" transform="translate(8,4)"/>
<path d="M0 0 C3.62834995 0.0362835 5.04084903 0.19049527 8.25 2.0625 C10.64635645 4.758401 12.14730837 6.8405866 12.40234375 10.49609375 C12.01952011 14.51226174 11.52708319 16.89687521 9.25 20.3125 C5.29564022 22.94873985 1.97524664 23.61319751 -2.75 23.3125 C-6.55158096 21.74228178 -8.56186667 19.7475026 -10.75 16.3125 C-11.4135265 12.9119267 -11.36221119 9.72102716 -10.75 6.3125 C-8.3125 3.25 -8.3125 3.25 -5.75 1.3125 C-4.10962605 -0.32787395 -2.25523159 0.06338669 0 0 Z " fill="#191C35" transform="translate(113.75,12.6875)"/>
<path d="M0 0 C2.875 2.5 2.875 2.5 5 5 C5.33 5.33 5.66 5.66 6 6 C6.6378234 11.4306107 7.01232506 15.63199316 3.6875 20.125 C-0.68345191 23.17450133 -4.78812471 23.56096505 -10 23 C-14.16507424 21.2414131 -16.20882468 19.14798495 -18 15 C-18.53283238 10.81345988 -18.27184149 8.56543029 -16.4375 4.75 C-11.75761939 -0.5298653 -6.75924182 -2.00273832 0 0 Z M-8.25 5.375 C-10.33043703 7.02008445 -10.33043703 7.02008445 -10.9375 10.4375 C-11.28522472 13.85296276 -11.28522472 13.85296276 -9.9375 16 C-7.05932137 17.48551155 -5.0547415 16.79688909 -2 16 C-0.6258337 14.83406538 -0.6258337 14.83406538 -0.625 11.625 C-0.60460549 7.90441615 -0.60460549 7.90441615 -3.25 5.9375 C-5.88219086 4.79772046 -5.88219086 4.79772046 -8.25 5.375 Z " fill="#2D3091" transform="translate(89,13)"/>
<path d="M0 0 C2.6757835 2.1406268 3.35853057 3.43412229 4.1875 6.75 C4.6569894 11.05365283 4.47436364 13.2070081 2.4375 17.0625 C-0.78219697 20.90824916 -0.78219697 20.90824916 -3.8125 21.75 C-9.12487628 22.17161717 -12.55022763 22.28159711 -16.8125 18.75 C-19.65551034 15.31878062 -20.40810152 12.22074782 -20.23046875 7.74609375 C-19.45253282 4.03090443 -17.57272109 2.32620635 -14.8125 -0.25 C-9.84008079 -3.25962216 -5.14518895 -2.28675065 0 0 Z M-12.8125 6.75 C-13.35238198 9.98929188 -13.34755204 11.82852148 -11.6875 14.6875 C-8.88579973 16.27513015 -6.84264356 15.49070176 -3.8125 14.75 C-2.95862895 11.44432511 -2.95862895 11.44432511 -2.8125 7.75 C-4.54260388 5.26768273 -4.54260388 5.26768273 -6.8125 3.75 C-9.29226302 3.75 -10.94854817 5.3161909 -12.8125 6.75 Z " fill="#2C2F91" transform="translate(50.8125,14.25)"/>
<path d="M0 0 C0.99 0 1.98 0 3 0 C3 1.98 3 3.96 3 6 C4.65 6 6.3 6 8 6 C8 7.98 8 9.96 8 12 C6.35 12 4.7 12 3 12 C3 15.63 3 19.26 3 23 C4.65 22.67 6.3 22.34 8 22 C8.04254356 23.99954746 8.04080783 26.00041636 8 28 C7 29 7 29 3.6875 29.3125 C0 29 0 29 -2.21484375 27.40234375 C-4.59370042 24.20103773 -4.40768617 22.19215423 -4.25 18.25 C-4.21390625 17.07953125 -4.1778125 15.9090625 -4.140625 14.703125 C-4.09421875 13.81109375 -4.0478125 12.9190625 -4 12 C-4.99 12 -5.98 12 -7 12 C-7 10.68 -7 9.36 -7 8 C-5.36739286 6.62517293 -3.69774938 5.29352333 -2 4 C-0.68834743 1.88339573 -0.68834743 1.88339573 0 0 Z " fill="#2C2F92" transform="translate(62,7)"/>
<path d="M0 0 C2.5625 0.1875 2.5625 0.1875 4.5625 2.1875 C4.79296875 4.53515625 4.79296875 4.53515625 4.75 7.25 C4.74033203 8.59771484 4.74033203 8.59771484 4.73046875 9.97265625 C4.5625 12.1875 4.5625 12.1875 3.5625 13.1875 C1.22952567 13.22842937 -1.10455225 13.22991723 -3.4375 13.1875 C-3.7675 12.1975 -4.0975 11.2075 -4.4375 10.1875 C-2.1275 10.5175 0.1825 10.8475 2.5625 11.1875 C2.5625 10.1975 2.5625 9.2075 2.5625 8.1875 C1.5725 8.1875 0.5825 8.1875 -0.4375 8.1875 C-0.4375 7.5275 -0.4375 6.8675 -0.4375 6.1875 C0.2225 6.1875 0.8825 6.1875 1.5625 6.1875 C1.5625 5.1975 1.5625 4.2075 1.5625 3.1875 C-0.0875 3.5175 -1.7375 3.8475 -3.4375 4.1875 C-3.4375 0.26442308 -3.4375 0.26442308 0 0 Z " fill="#D9D9DE" transform="translate(114.4375,16.8125)"/>
<path d="M0 0 C0.5625 1.9375 0.5625 1.9375 1 4 C0 5 0 5 -3.5625 5.0625 C-4.696875 5.041875 -5.83125 5.02125 -7 5 C-7.33 4.01 -7.66 3.02 -8 2 C-5.69 2.33 -3.38 2.66 -1 3 C-0.67 2.01 -0.34 1.02 0 0 Z " fill="#F0F1F2" transform="translate(118,25)"/>
</svg>
