<?xml version="1.0" encoding="UTF-8"?>
<svg version="1.1" xmlns="http://www.w3.org/2000/svg" width="96" height="96">
<path d="M0 0 C23.76 0 47.52 0 72 0 C72 23.76 72 47.52 72 72 C48.24 72 24.48 72 0 72 C0 48.24 0 24.48 0 0 Z " fill="#253238" transform="translate(12,12)"/>
<path d="M0 0 C23.76 0 47.52 0 72 0 C72 23.76 72 47.52 72 72 C48.24 72 24.48 72 0 72 C0 48.24 0 24.48 0 0 Z M4 14 C4 31.82 4 49.64 4 68 C25.12 68 46.24 68 68 68 C68 50.18 68 32.36 68 14 C46.88 14 25.76 14 4 14 Z " fill="#CED7DB" transform="translate(12,12)"/>
<path d="M0 0 C1.82312056 0.87401661 3.63330341 1.77505917 5.4375 2.6875 C6.44683594 3.18636719 7.45617188 3.68523438 8.49609375 4.19921875 C11 6 11 6 11.84765625 8.70703125 C11.92306641 9.84205078 11.92306641 9.84205078 12 11 C10.56542672 11.9834496 9.12722594 12.96160921 7.6875 13.9375 C6.88699219 14.48277344 6.08648437 15.02804688 5.26171875 15.58984375 C3 17 3 17 0 18 C-0.25 15.6875 -0.25 15.6875 0 13 C2.04424538 11.02389614 3.1176825 10 6 10 C6 9.34 6 8.68 6 8 C5.195625 7.690625 4.39125 7.38125 3.5625 7.0625 C1 6 1 6 0 5 C-0.04063832 3.33382885 -0.042721 1.66611905 0 0 Z " fill="#18F3F4" transform="translate(30,44)"/>
<path d="M0 0 C6.6 0 13.2 0 20 0 C20 1.32 20 2.64 20 4 C13.4 4 6.8 4 0 4 C0 2.68 0 1.36 0 0 Z " fill="#18FFFF" transform="translate(46,58)"/>
<path d="M0 0 C1.65 0.33 3.3 0.66 5 1 C4.67 2.65 4.34 4.3 4 6 C2.35 5.67 0.7 5.34 -1 5 C-0.67 3.35 -0.34 1.7 0 0 Z " fill="#98ABB4" transform="translate(25,16)"/>
<path d="M0 0 C1.65 0.33 3.3 0.66 5 1 C4.67 2.65 4.34 4.3 4 6 C2.35 5.67 0.7 5.34 -1 5 C-0.67 3.35 -0.34 1.7 0 0 Z " fill="#98ABB4" transform="translate(17,16)"/>
</svg>
