<svg xmlns="http://www.w3.org/2000/svg" viewBox="0 0 565.8 433.5"><defs><style>.a{fill:#a67c52;stroke-linejoin:round;}.a,.b,.c,.d{stroke:#000;}.a,.b{stroke-width:9px;}.b,.d{fill:#754c24;}.b,.c,.d{stroke-miterlimit:10;}.c{fill:#c69c6d;stroke-width:8.25px;}.d{stroke-width:12px;}.e{fill:#fbb03b;}.f{fill:#c1272d;}.g{fill:#f15a24;}.h{fill:#ed1c24;}.i{fill:#8cc63f;}</style></defs><rect class="a" x="4.5" y="27.89" width="556.8" height="401.11"/><rect class="b" x="33.26" y="4.5" width="207.84" height="23.01"/><rect class="c" x="911.78" y="321.25" width="103.94" height="172" rx="24.54" transform="translate(-766.8 547.25) rotate(-45)"/><rect class="c" x="1072.69" y="321.04" width="103.94" height="172" rx="24.54" transform="translate(871 1236.63) rotate(-135)"/><rect class="c" x="912.03" y="481.94" width="103.94" height="172" rx="24.54" transform="translate(-77.16 -768.81) rotate(45)"/><rect class="c" x="1072.95" y="482.15" width="103.94" height="172" rx="24.54" transform="translate(1561 -79.05) rotate(135)"/><polygon class="d" points="333.73 111.5 233.07 111.5 161.9 182.67 161.9 283.33 233.07 354.5 333.73 354.5 404.9 283.33 404.9 182.67 333.73 111.5"/><rect class="e" x="187.9" y="206.5" width="53" height="53"/><rect class="f" x="256.9" y="205.5" width="53" height="53"/><rect class="g" x="324.9" y="205.5" width="53" height="53"/><rect class="h" x="1018" y="391" width="53" height="53" transform="translate(700.9 -880.5) rotate(90)"/><rect class="i" x="1019" y="528" width="53" height="53" transform="translate(838.9 -744.5) rotate(90)"/></svg>